<svg width="600" height="600" xmlns="http://www.w3.org/2000/svg">
 <!-- Created with Method Draw - http://github.com/duopixel/Method-Draw/ -->
 <g>
  <title>background</title>
  <rect fill="#fff" id="canvas_background" height="602" width="602" y="-1" x="-1"/>
  <g display="none" overflow="visible" y="0" x="0" height="100%" width="100%" id="canvasGrid">
   <rect fill="url(#gridpattern)" stroke-width="0" y="0" x="0" height="100%" width="100%"/>
  </g>
 </g>
 <g>
  <title>Layer 1</title>
  <path d="m48.5,544c0,-4 0,-11 0,-16c0,-7 0.57467,-14.01508 1,-20c0.50126,-7.05328 1,-14 1,-19c0,-5 0,-11 0,-16c0,-8 0.57736,-12.02386 0,-19c-0.50171,-6.06204 -2,-10 -2,-19c0,-3 0,-12 0,-17c0,-6 0,-11 0,-19c0,-5 0,-11 0,-16c0,-8 0,-11 0,-16c0,-5 -0.51945,-8.03873 -1,-11c-0.50654,-3.12143 -1,-5 -1,-7c0,-3 0,-5 0,-9c0,-2 0,-7 0,-11c0,-6 0,-11 0,-18c0,-4 1,-11 1,-15c0,-4 0,-9 0,-13c0,-3 0,-7 0,-12c0,-4 0,-8 0,-14c0,-5 0,-9 0,-16c0,-4 0,-8 0,-13c0,-5 0,-7 0,-12c0,-2 0,-6 0,-8c0,-3 -0.66251,-6.31001 1,-9c0.7435,-1.203 2.69255,-3.186 4,-5c0.8269,-1.14726 1.85273,-2.1731 3,-3c1.81399,-1.30745 4.18601,-3.69255 6,-5c2.29454,-1.65381 4.38687,-3.9176 7,-5c0.92388,-0.38269 3.82375,-2.48625 6,-3c1.9465,-0.4595 3.93414,-1.14429 6,-2c2.92156,-1.21014 3.54916,-1.95517 7,-3c2.87128,-0.86935 3.90778,-0.49623 8,-1c2.97752,-0.36655 7,-1 9,-1c3,0 5.90778,-0.49623 10,-1c4.96254,-0.61092 8,0 12,0c4,0 6.01363,-0.32993 10,0c6.06204,0.50171 5.69255,2.186 7,4c1.65381,2.29454 5.14429,3.93414 6,6c1.21014,2.92157 1.95517,3.54915 3,7c0.86935,2.87128 1.50731,6.02434 2,11c0.50244,5.0742 1.49623,9.90779 2,14c0.73309,5.95505 -0.91901,9.10701 0,13c0.51375,2.17625 1,4 1,5c0,1 0,1 0,2c0,0 0,5 -2,10c-2,5 -3.77538,8.12553 -10,19c-2.8967,5.06055 -4.47737,6.63245 -9,13c-3.3765,4.75388 -5,8 -9,12c-2,2 -5.77978,4.19058 -11,10c-2.40988,2.68188 -6.66995,6.09479 -11,10c-3.71298,3.34869 -7.34235,7.56342 -10,10c-4.71973,4.32715 -6,7 -8,9c-2,2 -4,4 -5,5c-1,1 -2.29289,2.29291 -3,3c-0.70711,0.70709 -2,1 -3,1c0,0 -2,1 -2,1c-2,1 -3,1 -4,1c-1,0 -2,0 -3,0c0,0 -1,1 -1,1c-1,0 -1,0 -1,0c-1,0 -2.58578,-1.41422 -4,0c-0.70711,0.70709 -2,2 -3,2c0,0 -1,0 -1,1c0,0 0,0 -1,0c0,0 -1,0 -1,0c0,0 -1,0 -1,1l0,0" id="svg_3" stroke-width="5" stroke="#000" fill="none"/>
  <path d="m195.5,172c0,11 0,18 0,40c0,5 0.49873,20.94672 1,28c0.92155,12.9673 0,23 0,26c0,15 0,19 0,24c0,5 0.49489,12.02045 0,18c-0.50171,6.06204 -1.18323,9.96683 -2,15c-1.29143,7.95816 -1.49829,12.93796 -2,19c-0.4124,4.98297 -0.71645,11.01007 -1,15c-0.50127,7.05328 -1,11 -1,16c0,3 0,8 0,11c0,3 0.43289,6.02011 1,14c0.50127,7.05328 2,15 2,19c0,9 0,11 0,15c0,8 0,11 0,14c0,3 0,8 0,11c0,3 -0.48055,6.03873 0,9c0.50655,3.12143 1,6 1,7c0,2 0,4 0,4c0,2 0,2 0,3c0,1 0,2 0,5c0,2 0,4 0,6c0,2 0,4 0,6c0,2 0,4 0,6c0,2 0,5 0,7c0,2 0,5 0,8c0,2 0,4 0,5c0,1 0,2 0,2c0,0 0,1 0,1c0,0 0,1 0,1c0,0 0,1 0,1c0,1 0,1 0,1c0,0 0,1 0,1c0,1 0,2 0,2c0,0 0,0 0,1l0,0" id="svg_4" stroke-width="5" stroke="#000" fill="none"/>
  <path d="m193.5,346c1,0 3,0 6,0c4,0 8.01947,-0.39417 12,0c5.0742,0.50244 8,1 13,1c2,0 6.87856,1.49347 10,2c2.96126,0.48056 5,0 7,0c4,0 6,1 9,1c2,0 4,2 6,2c2,0 4,1 5,1c1,0 3,0 3,0c2,0 2,0 4,0c1,0 2,0 3,0c0,0 1,0 2,0c0,0 1,0 1,0c1,0 1,0 3,0c2,0 3,0 5,0c2,0 4,1 6,1c2,0 3,0 4,0c0,0 1,0 2,0c0,0 1,0 1,0c1,0 2,0 3,0c0,0 1,0 1,0c2,0 3,1 4,1c0,0 0,1 1,1c1,0 1,1 1,1l0,0" id="svg_5" stroke-width="5" stroke="#000" fill="none"/>
  <path d="m194.5,179c0,0 3,0 4,0c3,0 7,0 12,0c4,0 13,0 16,0c7,0 13.06081,-0.3593 20,1c4.0462,0.7926 7,2 11,3c4,1 7,2 10,2c3,0 5,1 8,1c2,0 5.31,0.66251 8,-1c1.203,-0.7435 2,-2 4,-2c1,0 1,-1 2,-1l0,0l1,0l0,0" id="svg_6" stroke-width="5" stroke="#000" fill="none"/>
  <path d="m195.5,534c5,0 8,0 11,0c4,0 7,0 10,0c8,0 11,1 16,1c5,0 8,0 13,0c4,0 9.06456,-0.8009 14,0c3.12143,0.50653 8.21539,1.88104 14,0c2.12646,-0.69147 4.02582,-0.67963 6,-1c3.12143,-0.50653 4,-1 5,-1c1,0 2,-1 2,-1c1,0 1,0 1,0c0,0 1,0 1,0c1,0 1,0 2,1l1,1" id="svg_7" stroke-width="5" stroke="#000" fill="none"/>
  <path d="m382.5,174c-1,0 -3.85272,0.1731 -5,1c-1.814,1.30745 -4.186,1.69255 -6,3c-1.14728,0.8269 -4,3 -5,4c-2,2 -3.41885,1.41885 -5,3c-1.58115,1.58115 -2.186,2.69255 -4,4c-1.14728,0.8269 -3.94489,6.02852 -5,8c-3.80423,7.10829 -6.19409,9.88855 -9,15c-3.22806,5.88045 -7.21005,10.85075 -10,15c-3.2536,4.83881 -5.33749,8.31001 -7,11c-1.487,2.40601 -5.87766,7.06601 -7,9c-1.80972,3.11848 -3.57971,6.15688 -6,12c-0.85571,2.06586 -1.51944,4.03873 -2,7c-0.50653,3.12143 -2.48627,6.82376 -3,9c-0.4595,1.9465 0.4595,4.0535 0,6c-0.51373,2.17624 -1,5 -1,6c0,2 0.48627,3.82376 1,6c0.4595,1.9465 -0.38934,3.15927 1,6c1.58411,3.23892 1.61066,4.15927 3,7c1.58411,3.23892 4.10339,4.90634 5,6c2.28589,2.78833 8.69254,11.186 10,13c2.48071,3.4418 8.06601,6.87766 10,8c3.11847,1.80972 7.88153,5.19028 11,7c3.86798,2.24469 7.13202,3.75531 11,6c3.11847,1.80972 5.77063,4.25934 8,6c4.59598,3.58844 6.93164,6.07339 8,7c3.77728,3.276 5.34619,4.70547 7,7c1.30746,1.814 3.28317,5.75223 5,8c4.89374,6.40714 4,10 5,12c2,4 2.513,6.59399 4,9c1.66251,2.69 1.83981,7.01291 2,8c0.50653,3.12143 1.49347,4.87857 2,8c0.32037,1.97418 0,4 0,6c0,2 0,4 0,6c0,2 0.32037,4.02582 0,6c-0.50653,3.12143 -2,12 -3,15c-1,3 -1.57971,6.15686 -4,12c-1.71143,4.13171 -1.73038,6.69363 -6,13c-1.58569,2.34213 -5,6 -6,7c-3,3 -5.61383,4.297 -8,7c-1.47983,1.67633 -6,7 -6,7c-1,1 -1.1731,1.85272 -2,3c-1.30746,1.814 -1.23462,3.15225 -2,5c-0.5412,1.30655 -2.4588,1.69345 -3,3c-0.38269,0.92389 -1,2 -1,7c0,0 0,1 0,2c0,1 0,1 0,2c0,1 0,1 0,2c0,0 0,1 0,1c0,1 -1.4588,1.69342 -2,3c-0.38269,0.92389 -1.82443,1.0979 -3,3c-0.52573,0.85065 -1,2 -2,3c-1,1 -1.29291,2.29291 -2,3c-0.70709,0.70709 -2,1 -2,1c0,1 0,1 0,1c0,1 0,1 -1,1l0,0" id="svg_8" stroke-width="5" stroke="#000" fill="none"/>
  <path d="m447.5,183c0,6 1.59998,12.04811 3,22c1.5575,11.07132 3.20911,17.96402 5,29c1.13266,6.97977 1.49875,15.94672 2,23c0.49622,6.98239 1,16 1,21c0,15 -0.49875,21.94672 -1,29c-0.92157,12.96729 -1.44699,22.01529 -2,32c-0.50076,9.04153 -1.9187,18.01208 -3,25c-0.93018,6.01123 -2,10 -2,15c0,6 -1.49957,11.96881 -2,24c-0.20779,4.99567 0,9 0,18c0,3 -0.49829,7.93796 -1,14c-0.32993,3.98636 0,9 0,12c0,4 0,6 0,9c0,4 0,6 0,8c0,9 1,13 1,15c0,5 -1.53073,8.30447 0,12c0.5412,1.30655 1,4 1,5c0,1 0,2 0,3c0,0 0,1 0,2c0,0 0,0 0,1c0,0 0,1 0,1c0,0 0,1 0,2c0,0 -1,2 -1,3c0,2 0,5 0,7c0,2 0,3 0,5c0,2 1,3 1,3c0,1 1,2 1,2c0,0 0,0 0,1c0,0 1,0 1,0c0,0 0,0 1,1c0,0 4.88153,3.19031 8,5c1.93399,1.12231 5.87857,2.49347 9,3c4.93542,0.8009 9.00497,-0.19928 13,0c10.03738,0.50061 15.01703,1.41241 20,1c6.06204,-0.50171 21,-1 25,-1c3,0 6,0 11,0c3,0 6.07611,-0.38269 7,0c1.30658,0.5412 2,1 2,1l1,0l0,0l0,0" id="svg_9" stroke-width="5" stroke="#000" fill="none"/>
  <path d="m146.5,98c0,0 -1,0 -4,0c-3,0 -6.05165,0.64073 -10,0c-3.12144,-0.50654 -6,-1 -9,-1c-3,0 -8,0 -9,0c-2,0 -4,0 -6,0c-2,0 -3,1 -5,1c-3,0 -3.82375,0.48626 -6,1c-1.9465,0.4595 -4,0 -5,0c-1,0 -2,0 -2,0c-1,0 -1,0 -1,0c0,0 1,0 3,0c2,0 6,-1 9,-3c3,-2 6,-3 10,-4c4,-1 7.22836,-1.85195 10,-3c1.30656,-0.5412 2.69344,-1.4588 4,-2c0.92388,-0.38268 2,0 2,0c1,0 1,-1 2,-1c1,0 2,-1 2,-1c1,0 1.82375,-0.48626 4,-1c1.9465,-0.4595 2.82375,-1.48626 5,-2c0.97325,-0.22975 3,-1 4,-1c0,0 1,0 1,0c1,0 1,0 1,0c0,0 -1.07613,0.38268 -2,0c-1.30656,-0.5412 -3.02582,-0.67963 -5,-1c-3.12144,-0.50654 -5.87856,-1.49346 -9,-2c-1.97418,-0.32037 -4.82375,-1.48626 -7,-2c-1.9465,-0.4595 -5,-1 -7,-1c-1,0 -3.15224,-0.23463 -5,-1c-1.30656,-0.5412 -2.69344,-1.4588 -4,-2c-0.92388,-0.38268 -2,0 -3,-1c0,0 0,0 -1,0c0,0 0,0 0,0c-1,0 -1,0 -1,0c-1,-1 -1,-1 -1,-1c-1,0 -1,0 -2,0c0,0 -0.70711,-1.29289 0,-2c0.70711,-0.70711 1.85273,-0.1731 3,-1c1.814,-1.30745 3.82375,-2.48626 6,-3c1.9465,-0.45951 3,-1 5,-2c2,-1 2.69344,-1.45881 4,-2c0.92388,-0.38268 1.69344,-0.45881 3,-1c0.92388,-0.38268 0.69344,-0.45881 2,-1c0.92388,-0.38268 2,0 2,0c2,0 3,0 4,0c1,0 1,-1 3,-1c1,0 1,0 1,0c1,0 1,0 2,0c0,0 0,0 0,0c1,0 1,0 1,0c1,0 1,0 2,0c0,0 1,0 1,0c1,0 1,0 1,0c0,0 1,0 1,0c0,0 0.29289,0.70711 1,0c0.70711,-0.70711 1.07613,-1.61732 2,-2c1.30656,-0.54119 2,-2 2,-2c0,0 1,-1 1,-1c0,0 0,0 0,0c0,0 -1,0 -2,0c-1,0 -2,0 -4,0c-1,0 -3,-1 -3,-1c-2,-1 -3.4588,-0.69344 -4,-2c-0.38269,-0.92388 -1,-2 -1,-2c0,0 -1,-1 -1,-1c-1,-1 -2,-1 -3,-2c0,0 -1,-1 -2,-1c0,0 0,-1 -1,-1c0,0 0,0 0,0c0,0 -0.30656,-0.45881 1,-1c1.84776,-0.76537 4.87856,-0.49346 8,-1c1.97418,-0.32037 5.03874,0.48055 8,0c3.12144,-0.50654 5,-1 7,-1c2,0 1.69344,-0.45881 3,-1c0.92387,-0.38268 2,0 2,0c1,0 1,-1 2,-1c0,0 1.07613,0.38268 2,0c1.30656,-0.54119 1,-1 2,-1c0,0 1,0 2,-1c0,0 0,0 1,0c0,0 0,0 1,0c0,0 0,0 0,-1c0,0 0,-1 0,-3c0,-1 0.4588,-2.69344 1,-4c0.76537,-1.84776 -0.22975,-4.02675 0,-5c0.51375,-2.17625 1,-3 1,-3c0,-1 0,-1 0,-2c0,0 0,0 0,-1c0,0 0,0 0,0c0,-1 0,-1 0,-1c0,-1 0,-1 1,-1c0,0 0.29289,-0.70711 1,0c0.70711,0.70711 1.29289,1.29289 2,2c0.70711,0.70711 0.29289,1.29289 1,2c0.70711,0.70711 1,0 1,1c0,0 1,0 1,0c0,1 0,2 0,2c0,0 0,1 1,1c0,0 0,1 0,1c0,0 0,1 0,1c0,0 1,0 1,0c0,0 0,0 0,1c0,0 0,0 0,0c1,0 1,1 1,1c0,0 0,1 0,1c0,0 1,0 1,1c0,0 0,0 0,0c1,0 1,0 1,0c1,0 1,0 1,0c0,1 1.01291,0.83982 2,1c3.12144,0.50654 5.02582,0.67964 7,1c3.12144,0.50654 4.82375,1.48626 7,2c1.9465,0.45951 4,1 5,1c1,0 1.29289,0.29289 2,1c0.70711,0.70711 2,0 3,0c1,0 1.69344,0.45881 3,1c0.92387,0.38268 2,0 2,0c1,0 1,0 1,0c1,0 0,0 0,0c-2,0 -2.69344,0.45881 -4,1c-0.92387,0.38268 -4.0535,0.54049 -6,1c-2.17625,0.51374 -3.22836,0.85195 -6,2c-1.30656,0.54119 -1.69344,1.45881 -3,2c-1.84776,0.76537 -2,0 -3,1c0,0 -1,0 -1,0c0,0 0,0 -1,0c0,0 0,0 -1,0c0,0 -1,0 -1,0c0,0 -1,0 -1,0c0,1 0,1 -1,1c0,0 0,0 -1,0c0,0 0,0 0,0c1,1 3,1 5,1c2,0 5.03067,-0.08769 8,1c5.05659,1.85227 5.70546,3.34619 8,5c1.814,1.30745 4.186,2.69255 6,4c1.14726,0.8269 3,3 4,4c0,0 1.61731,2.07612 2,3c0.5412,1.30656 0.58578,1.58578 2,3c0.70711,0.70711 2,1 2,2c0,0 0,0 0,0c1,0 1,0 1,0c-1,0 -2,0 -3,0c-2,0 -4,1 -7,1c-2,0 -6,0 -8,0c-3,0 -6,0 -8,0c-1,0 -3,-1 -6,-1c-1,0 -2,0 -3,0c-1,0 -2,0 -2,0c-1,0 -1,0 -1,0c-1,0 -1,0 -1,0c0,0 -1,0 -1,0c-1,0 -1,0 -1,0c0,0 -1,0 -1,0c0,1 2.0535,0.5405 4,1c2.17625,0.51374 3.96384,1.11587 7,2c3.95868,1.15277 7.97734,1.09544 12,2c4.97479,1.11866 7.04132,1.84723 11,3c3.03616,0.88413 7,2 9,3c4,2 5,2 7,4c1,1 2.61731,2.07612 3,3c0.5412,1.30656 0.29289,1.29289 1,2c0.70711,0.70711 1,0 1,1c0,0 -1,0 -1,0c-3,3 -5.50624,4.66538 -8,6c-4.49568,2.40601 -7.90779,1.49622 -12,2c-1.98502,0.24437 -6,0 -10,0c-3,0 -5,0 -8,0c-2,0 -4,0 -5,0c-1,0 -2,0 -3,0c0,0 -1,0 -1,0c0,0 0,0 -1,0c0,0 0,2 0,3c0,0 0.4595,2.0535 0,4c-0.51375,2.17625 -1.49345,2.87856 -2,6c-0.32036,1.97417 0.4595,3.0535 0,5c-0.51375,2.17625 -1,3 -1,4c0,1 0,3 0,3c0,2 -1.41422,3.58578 0,5c0.70711,0.70711 1,2 1,2c-1,2 -1,3 -1,3c0,1 0,1 0,1c0,0 0,1 0,1c0,0 0,1 0,1c0,0 0,0 0,1c0,0 0,0 0,1c0,0 -1,0 -1,0c-1,0 -1,0 -3,0c-1,0 -2.69344,0.4588 -4,1c-0.92387,0.38269 -3,0 -5,0c-2,0 -3,1 -5,1c-1,0 -2.29289,-0.70711 -3,0c-0.70711,0.70711 -1,1 -2,1c-1,0 -2,0 -2,0c-1,0 -2,0 -2,1c0,0 -1,0 -1,0c-1,0 -1,0 -1,0c0,0 -1,0 -1,0c0,0 -1,0 -1,0c0,-1 -0.29289,-1.29289 -1,-2c-0.70711,-0.70711 0,-2 0,-4c0,-1 -0.4588,-1.69344 -1,-3c-0.76537,-1.84776 0,-3 0,-5c0,-1 -0.48625,-1.82375 -1,-4c-0.22975,-0.97325 0,-2 0,-3c0,0 0,0 0,-1c0,0 0,-1 0,-1c0,0 0,0 0,-1c0,-1 0,-1 0,-2c0,0 0,0 0,-1c0,0 0,0 0,-1c0,-1 -1,-1 -1,-1c0,-1 0,-1 0,-1c0,-1 0,-1 0,-1c0,-1 0,-1 0,-2c0,-1 0.38269,-2.07612 0,-3c-0.5412,-1.30656 -1,-1 -1,-1c0,-1 0,-1 0,-1l0,-1l0,0" id="svg_11" stroke-width="5" stroke="#000" fill="none"/>
 </g>
</svg>